# xmcd CD database file
#
# Track frame offsets:
#	150
#	20234
#	34936
#	51383
#	65458
#
# Disc length: 1072 seconds
#
# Revision: 0
# Processed by: cddbd v1.5.2PL0 Copyright (c) Steve Scherf et al.
# Submitted via: CDex 1.50
#
DISCID=46042e05
DTITLE=Cat Southern - So Far
DYEAR=2005
DGENRE=Country
TTITLE0=Big Girl Now
TTITLE1=That's The Kinda Man I'm Looking For
TTITLE2=Beats Like It's Been Used
TTITLE3=Love You And Hate You
TTITLE4=What's One More
EXTD=YEAR: 2005
EXTT0=
EXTT1=
EXTT2=
EXTT3=
EXTT4=
PLAYORDER=
